# xmcd CD database file generated by Grip 3.0.4
# 
# Track frame offsets:
#       150
#       20500
#       37792
#       56495
#       80515
#       90690
#       110307
#       125135
#       145195
#       159910
#       183472
#       202827
# 
# Disc length: 2932 seconds
# 
# Revision: 0
# Processed by: cddbd v1.4PL0 Copyright (c) Steve Scherf et al.
# Submitted via: Grip 3.0.4
# 
DISCID=940b720c
DTITLE=REM - Automatic for the People
DYEAR=1992
DGENRE=Progressive Rock
TTITLE0=Drive
TTITLE1=Try Not To Breathe
TTITLE2=The Sidewinder Sleeps Tonite
TTITLE3=Everybody Hurts
TTITLE4=New Orleans Instrumental No. 1
TTITLE5=Sweetness Follows
TTITLE6=Monty Got A Raw Deal
TTITLE7=Ignoreland
TTITLE8=Star Me Kitten
TTITLE9=Man on the Moon
TTITLE10=Nightswimming
TTITLE11=Find the River
EXTD=
EXTT0=
EXTT1=
EXTT2=
EXTT3=
EXTT4=
EXTT5=
EXTT6=
EXTT7=
EXTT8=
EXTT9=
EXTT10=
EXTT11=
PLAYORDER=
